<svg id="Group_73" data-name="Group 73" xmlns="http://www.w3.org/2000/svg" xmlns:xlink="http://www.w3.org/1999/xlink" width="72" height="26.934" viewBox="0 0 72 26.934">
  <defs>
    <linearGradient id="linear-gradient" x1="0.426" y1="-0.078" x2="0.556" y2="1.285" gradientUnits="objectBoundingBox">
      <stop offset="0" stop-color="#f0c540"/>
      <stop offset="0.33" stop-color="#d82434"/>
      <stop offset="0.609" stop-color="#5052a2"/>
      <stop offset="1" stop-color="#7453a1"/>
    </linearGradient>
    <clipPath id="clip-path">
      <path id="Path_329" data-name="Path 329" d="M7.312,9.645H9.984L8.948,13.723H6.279ZM12.263.557,10.646,7.042H7.972L9.66.557H6.952L5.309,7.042H1.832l-.512,2.6H4.649L3.616,13.723H.51L0,16.326H2.956l-1.647,6.5H3.973l1.647-6.5H8.287l-1.651,6.5H9.329l1.652-6.5h3.505l.526-2.6h-3.37l1.036-4.078h3.166l.512-2.6H13.339L14.987.557Zm20.725,0L31.17,15.092h-.03L28.7,6.485H25.768l-2.513,8.186h-.03L21.477.557H17.545l2.949,22.269h3.04l3.2-10.683h.045l2.874,10.683H33L35.947.557ZM43.2,19.576A5.562,5.562,0,0,1,41.749,17a20.1,20.1,0,0,1-.52-5.334,19.9,19.9,0,0,1,.512-5.251,5.624,5.624,0,0,1,1.439-2.588,3.081,3.081,0,0,1,4.281.014A5.739,5.739,0,0,1,48.9,6.425a19.948,19.948,0,0,1,.513,5.281A19.42,19.42,0,0,1,48.88,17a5.657,5.657,0,0,1-1.455,2.581,3.084,3.084,0,0,1-4.229-.008M45.322,0a8.209,8.209,0,0,0-4.853,1.347A8.835,8.835,0,0,0,37.49,5.229a16.663,16.663,0,0,0-1.076,6.462q0,5.387,2.242,8.539a7.633,7.633,0,0,0,6.651,3.152h.5q.723.451.948.587l1.445.978a15.333,15.333,0,0,0,4.393,1.986l3.13-3.085a17.175,17.175,0,0,1-2.979-.339,11.611,11.611,0,0,1-3.235-1.061,10.059,10.059,0,0,0,2.926-2.9,10.8,10.8,0,0,0,1.384-3.589,21.38,21.38,0,0,0,.414-4.273A16.325,16.325,0,0,0,53.086,5.1a8.708,8.708,0,0,0-3.032-3.837A8.328,8.328,0,0,0,45.322,0Zm19,0q-4.329,0-6.291,1.76a5.521,5.521,0,0,0-1.961,4.258,5.375,5.375,0,0,0,.421,2.122,5.854,5.854,0,0,0,1.234,1.821,12.6,12.6,0,0,0,2.829,1.926L64.7,14.146a6.887,6.887,0,0,1,2.2,1.595,2.54,2.54,0,0,1,.422,1.414,2.712,2.712,0,0,1-1.295,2.271,5.7,5.7,0,0,1-3.37.917,17.371,17.371,0,0,1-6.485-1.429v3.731a33.53,33.53,0,0,0,6.636.737,13.381,13.381,0,0,0,5.289-.858,6.392,6.392,0,0,0,2.927-2.4A6.162,6.162,0,0,0,72,16.762,5.69,5.69,0,0,0,70.917,13.3a12.207,12.207,0,0,0-4.032-3.039l-4.6-2.468a4.333,4.333,0,0,1-1.76-1.339,2.422,2.422,0,0,1-.286-1.114,1.97,1.97,0,0,1,1.089-1.708,5.958,5.958,0,0,1,3.1-.669,16.2,16.2,0,0,1,6.1,1.294V.738A25.473,25.473,0,0,0,64.318,0Z" fill="url(#linear-gradient)"/>
    </clipPath>
  </defs>
  <g id="Group_73-2" data-name="Group 73" clip-path="url(#clip-path)">
    <rect id="Rectangle_37" data-name="Rectangle 37" width="52.706" height="76.813" transform="translate(-9.614 22.898) rotate(-67.225)" fill="url(#linear-gradient)"/>
  </g>
</svg>
